HIERARCHY
ROOT hip
{
  OFFSET 0 0 0
  CHANNELS 6 Xposition Yposition Zposition Zrotation Yrotation Xrotation
  JOINT abdomen
  {
    OFFSET 0 20.6881 -0.73152
    CHANNELS 3 Zrotation Xrotation Yrotation
    JOINT chest
    {
      OFFSET 0 11.7043 -0.48768
      CHANNELS 3 Zrotation Xrotation Yrotation
      JOINT neck
      {
        OFFSET 0 22.1894 -2.19456
        CHANNELS 3 Zrotation Xrotation Yrotation
        JOINT head
        {
          OFFSET -0.24384 7.07133 1.2192
          CHANNELS 3 Zrotation Xrotation Yrotation
          JOINT leftEye
          {
            OFFSET 4.14528 8.04674 8.04672
            CHANNELS 3 Zrotation Xrotation Yrotation
            End Site
            {
              OFFSET 1 0 0
            }
          }
          JOINT rightEye
          {
            OFFSET -3.6576 8.04674 8.04672
            CHANNELS 3 Zrotation Xrotation Yrotation
            End Site
            {
              OFFSET 1 0 0
            }
          }
        }
      }
      JOINT rCollar
      {
        OFFSET -2.68224 19.2634 -4.8768
        CHANNELS 3 Zrotation Xrotation Yrotation
        JOINT rShldr
        {
          OFFSET -8.77824 -1.95073 1.46304
          CHANNELS 3 Zrotation Xrotation Yrotation
          JOINT rForeArm
          {
            OFFSET -28.1742 -1.7115 0.48768
            CHANNELS 3 Zrotation Xrotation Yrotation
            JOINT rHand
            {
              OFFSET -22.5879 0.773209 7.07136
              CHANNELS 3 Zrotation Xrotation Yrotation
              JOINT rThumb1
              {
                OFFSET -1.2192 -0.487915 3.41376
                CHANNELS 3 Zrotation Xrotation Yrotation
                JOINT rThumb2
                {
                  OFFSET -3.37035 -0.52449 3.41376
                  CHANNELS 3 Zrotation Xrotation Yrotation
                  End Site
                  {
                    OFFSET -1.78271 -1.18214 1.43049
                  }
                }
              }
              JOINT rIndex1
              {
                OFFSET -7.75947 0.938293 5.60832
                CHANNELS 3 Zrotation Xrotation Yrotation
                JOINT rIndex2
                {
                  OFFSET -2.54057 -0.884171 1.56538
                  CHANNELS 3 Zrotation Xrotation Yrotation
                  End Site
                  {
                    OFFSET -1.62519 -0.234802 1.16502
                  }
                }
              }
              JOINT rMid1
              {
                OFFSET -8.24714 1.18213 3.41376
                CHANNELS 3 Zrotation Xrotation Yrotation
                JOINT rMid2
                {
                  OFFSET -3.10165 -0.590103 1.0647
                  CHANNELS 3 Zrotation Xrotation Yrotation
                  End Site
                  {
                    OFFSET -2.48547 -0.328903 0.83742
                  }
                }
              }
              JOINT rRing1
              {
                OFFSET -8.82822 0.546677 1.51678
                CHANNELS 3 Zrotation Xrotation Yrotation
                JOINT rRing2
                {
                  OFFSET -2.60934 -0.819778 -0.0198488
                  CHANNELS 3 Zrotation Xrotation Yrotation
                  End Site
                  {
                    OFFSET -2.33842 -0.294052 0.168128
                  }
                }
              }
              JOINT rPinky1
              {
                OFFSET -8.27202 -0.0477905 -0.4584
                CHANNELS 3 Zrotation Xrotation Yrotation
                JOINT rPinky2
                {
                  OFFSET -1.82734 -0.647385 -0.700984
                  CHANNELS 3 Zrotation Xrotation Yrotation
                  End Site
                  {
                    OFFSET -1.69225 -0.51767 -0.607171
                  }
                }
              }
            }
          }
        }
      }
      JOINT lCollar
      {
        OFFSET 2.68224 19.2634 -4.8768
        CHANNELS 3 Zrotation Xrotation Yrotation
        JOINT lShldr
        {
          OFFSET 8.77824 -1.95073 1.46304
          CHANNELS 3 Zrotation Xrotation Yrotation
          JOINT lForeArm
          {
            OFFSET 28.1742 -1.7115 0.48768
            CHANNELS 3 Zrotation Xrotation Yrotation
            JOINT lHand
            {
              OFFSET 22.5879 0.773209 7.07136
              CHANNELS 3 Zrotation Xrotation Yrotation
              JOINT lThumb1
              {
                OFFSET 1.2192 -0.487915 3.41376
                CHANNELS 3 Zrotation Xrotation Yrotation
                JOINT lThumb2
                {
                  OFFSET 3.37035 -0.52449 3.41376
                  CHANNELS 3 Zrotation Xrotation Yrotation
                  End Site
                  {
                    OFFSET 1.78271 -1.18214 1.43049
                  }
                }
              }
              JOINT lIndex1
              {
                OFFSET 7.75947 0.938293 5.60832
                CHANNELS 3 Zrotation Xrotation Yrotation
                JOINT lIndex2
                {
                  OFFSET 2.54057 -0.884171 1.56538
                  CHANNELS 3 Zrotation Xrotation Yrotation
                  End Site
                  {
                    OFFSET 1.62519 -0.234802 1.16502
                  }
                }
              }
              JOINT lMid1
              {
                OFFSET 8.24714 1.18213 3.41376
                CHANNELS 3 Zrotation Xrotation Yrotation
                JOINT lMid2
                {
                  OFFSET 3.10165 -0.590103 1.0647
                  CHANNELS 3 Zrotation Xrotation Yrotation
                  End Site
                  {
                    OFFSET 2.48547 -0.328903 0.83742
                  }
                }
              }
              JOINT lRing1
              {
                OFFSET 8.82822 0.546677 1.51678
                CHANNELS 3 Zrotation Xrotation Yrotation
                JOINT lRing2
                {
                  OFFSET 2.60934 -0.819778 -0.0198488
                  CHANNELS 3 Zrotation Xrotation Yrotation
                  End Site
                  {
                    OFFSET 2.33842 -0.294052 0.168128
                  }
                }
              }
              JOINT lPinky1
              {
                OFFSET 8.27202 -0.0477905 -0.4584
                CHANNELS 3 Zrotation Xrotation Yrotation
                JOINT lPinky2
                {
                  OFFSET 1.82734 -0.647385 -0.700984
                  CHANNELS 3 Zrotation Xrotation Yrotation
                  End Site
                  {
                    OFFSET 1.69225 -0.51767 -0.607171
                  }
                }
              }
            }
          }
        }
      }
    }
  }
  JOINT rButtock
  {
    OFFSET -8.77824 4.35084 1.2192
    CHANNELS 3 Zrotation Xrotation Yrotation
    JOINT rThigh
    {
      OFFSET 0 -1.70687 -2.19456
      CHANNELS 3 Zrotation Xrotation Yrotation
      JOINT rShin
      {
        OFFSET 0 -36.8199 0.73152
        CHANNELS 3 Zrotation Xrotation Yrotation
        JOINT rFoot
        {
          OFFSET 0.73152 -45.1104 -5.12064
          CHANNELS 3 Zrotation Xrotation Yrotation
          End Site
          {
            OFFSET -1.1221 -3.69964 12.103
          }
        }
      }
    }
  }
  JOINT lButtock
  {
    OFFSET 8.77824 4.35084 1.2192
    CHANNELS 3 Zrotation Xrotation Yrotation
    JOINT lThigh
    {
      OFFSET 0 -1.70687 -2.19456
      CHANNELS 3 Zrotation Xrotation Yrotation
      JOINT lShin
      {
        OFFSET 0 -36.8199 0.73152
        CHANNELS 3 Zrotation Xrotation Yrotation
        JOINT lFoot
        {
          OFFSET -0.73152 -45.1104 -5.12064
          CHANNELS 3 Zrotation Xrotation Yrotation
          End Site
          {
            OFFSET 1.1221 -3.69964 12.103
          }
        }
      }
    }
  }
}
MOTION
Frames:	4
Frame Time:	0.00833333
105.108 80.2996 126.803 -187.441 -12.9321 190.927 -4.7769 19.4258 -2.09588 4.85093 -1.50538 -1.1425 2.77179 5.21435 6.88464 -16.9055 -35.9584 6.80845 -0.0 0.0 0.0 -0.0 0.0 0.0 1.90557e-13 -2.73098e-14 -3.99803e-13 81.1876 12.5177 -8.28186 -13.1633 -6.29959 23.884 -0.129757 10.3978 1.47692 1.7152e-10 -6.66872e-10 -2.70856e-09 2.71693e-10 -1.15727e-09 -4.68688e-09 1.71524e-10 -6.66872e-10 -2.70857e-09 7.73091 5.47488 0.417314 1.7152e-10 -6.6687e-10 -2.70855e-09 2.90554 0.965183 0.102902 1.71528e-10 -6.66872e-10 -2.70856e-09 10.2786 0.731801 0.0259123 1.71515e-10 -6.66871e-10 -2.70855e-09 2.22167 -0.733487 -0.20892 1.9033e-13 -2.73079e-14 -4.00109e-13 -72.4941 27.681 -19.0149 20.6334 -13.8275 -40.2484 0.0682258 -7.43556 1.05096 1.30863e-09 3.37583e-09 -7.86921e-10 2.27206e-09 5.85441e-09 -1.35841e-09 1.30862e-09 3.37583e-09 -7.86903e-10 -7.73091 5.47488 -0.417314 1.30863e-09 3.37583e-09 -7.86913e-10 -2.90554 0.965183 -0.102902 1.30862e-09 3.37583e-09 -7.86914e-10 -10.2786 0.731801 -0.0259123 1.30863e-09 3.37583e-09 -7.86914e-10 -2.22167 -0.733487 0.20892 -2.03217e-16 0.0 -3.88251e-19 -6.60979 -55.4371 15.2475 -0.848067 56.2363 1.29857 -0.0528718 0.239719 -0.482927 2.03217e-16 0.0 3.88251e-19 1.42044 -14.2401 -1.68764 0.274573 37.4376 -0.70677 -3.24441 -25.1499 -6.82008
105.097 80.6508 127.053 -187.634 -13.6227 191.281 -4.90713 18.9637 -2.13427 4.74526 -1.50924 -1.13434 2.72621 5.29439 6.65765 -16.7537 -36.0121 6.40945 -0.0 0.0 0.0 -0.0 0.0 0.0 9.19977e-14 3.55792e-14 -2.41989e-13 81.509 13.0713 -8.16395 -13.3611 -6.45089 24.2765 -0.0913528 8.90349 1.26044 -5.43934e-12 -1.30411e-10 -2.30511e-09 -3.04069e-11 -2.28368e-10 -3.98691e-09 -5.4368e-12 -1.30408e-10 -2.30512e-09 7.73091 5.47488 0.417314 -5.43247e-12 -1.30407e-10 -2.3051e-09 2.90554 0.965183 0.102902 -5.43351e-12 -1.30407e-10 -2.30511e-09 10.2786 0.731801 0.0259123 -5.44224e-12 -1.30406e-10 -2.3051e-09 2.22167 -0.733487 -0.20892 9.18531e-14 3.55847e-14 -2.42297e-13 -72.5872 28.1656 -18.3904 20.7225 -13.9463 -40.4713 0.0729265 -7.68837 1.08711 8.2963e-10 2.70036e-09 -8.34857e-10 1.44358e-09 4.68392e-09 -1.44231e-09 8.29625e-10 2.70036e-09 -8.34839e-10 -7.73091 5.47488 -0.417314 8.29631e-10 2.70036e-09 -8.34847e-10 -2.90554 0.965183 -0.102902 8.29624e-10 2.70036e-09 -8.34849e-10 -10.2786 0.731801 -0.0259123 8.29632e-10 2.70036e-09 -8.3485e-10 -2.22167 -0.733487 0.20892 -2.03217e-16 0.0 -3.88251e-19 -6.35913 -55.6291 15.6225 -0.848135 56.2319 1.29749 -0.326954 0.758123 -2.90299 2.03217e-16 0.0 3.88251e-19 1.30375 -14.7551 -1.66616 0.263709 36.7578 -0.683408 -3.43679 -24.2438 -7.43336
105.031 80.9479 127.292 -187.867 -14.2806 191.592 -4.93983 18.5498 -2.15021 4.6003 -1.54412 -1.11547 2.72286 5.41883 6.40649 -16.6654 -36.0881 5.93269 -0.0 0.0 0.0 -0.0 0.0 0.0 -8.00487e-15 1.00556e-13 -7.26248e-14 81.8272 13.6091 -8.1028 -13.5789 -6.61954 24.711 -0.0626107 7.36745 1.04053 -2.63423e-10 4.15755e-10 -1.84884e-09 -4.71309e-10 7.1766e-10 -3.19492e-09 -2.63423e-10 4.15762e-10 -1.84885e-09 7.73091 5.47488 0.417314 -2.63411e-10 4.15763e-10 -1.84883e-09 2.90554 0.965183 0.102902 -2.6342e-10 4.15763e-10 -1.84884e-09 10.2786 0.731801 0.0259123 -2.63425e-10 4.15764e-10 -1.84884e-09 2.22167 -0.733487 -0.20892 -8.06e-15 1.00564e-13 -7.29287e-14 -72.6629 28.6556 -17.82 20.7745 -14.0173 -40.5977 0.0774961 -7.92204 1.12058 2.61818e-10 1.86554e-09 -8.71093e-10 4.6145e-10 3.23738e-09 -1.50614e-09 2.61815e-10 1.86554e-09 -8.71074e-10 -7.73091 5.47488 -0.417314 2.61819e-10 1.86554e-09 -8.71081e-10 -2.90554 0.965183 -0.102902 2.61813e-10 1.86554e-09 -8.71086e-10 -10.2786 0.731801 -0.0259123 2.61822e-10 1.86554e-09 -8.71088e-10 -2.22167 -0.733487 0.20892 -2.03217e-16 0.0 -3.88251e-19 -6.09775 -55.7466 16.0558 -0.846052 56.1788 1.29262 -0.575658 1.22225 -5.47845 2.03217e-16 0.0 3.88251e-19 1.25152 -15.2361 -1.66545 0.253491 36.0947 -0.66142 -3.59917 -23.3803 -8.00626
104.96 81.1858 127.714 -188.08 -14.7602 192.448 -4.82858 18.31 -2.22669 4.44452 -1.59197 -1.11532 2.73586 5.4494 6.15482 -16.592 -36.1226 5.44272 -0.0 0.0 0.0 -0.0 0.0 0.0 -6.44104e-14 1.55843e-13 1.60519e-14 82.0812 14.0771 -8.00966 -13.803 -6.79666 25.1587 -0.0461659 6.12052 0.863502 -4.7085e-10 7.27965e-10 -1.78732e-09 -8.27154e-10 1.25838e-09 -3.08682e-09 -4.70849e-10 7.27974e-10 -1.78733e-09 7.73091 5.47488 0.417314 -4.70833e-10 7.27974e-10 -1.7873e-09 2.90554 0.965183 0.102902 -4.70847e-10 7.27976e-10 -1.78732e-09 10.2786 0.731801 0.0259123 -4.70852e-10 7.27976e-10 -1.78732e-09 2.22167 -0.733487 -0.20892 -6.44063e-14 1.55852e-13 1.57537e-14 -72.7214 29.0943 -17.3746 20.7932 -14.0432 -40.6418 0.0811402 -8.09946 1.14602 -3.81162e-11 1.58034e-09 -9.73065e-10 -5.64298e-11 2.74333e-09 -1.68307e-09 -3.81182e-11 1.58034e-09 -9.73046e-10 -7.73091 5.47488 -0.417314 -3.81151e-11 1.58034e-09 -9.73053e-10 -2.90554 0.965183 -0.102902 -3.81213e-11 1.58034e-09 -9.73059e-10 -10.2786 0.731801 -0.0259123 -3.81126e-11 1.58034e-09 -9.73062e-10 -2.22167 -0.733487 0.20892 -2.03217e-16 0.0 -3.88251e-19 -5.86153 -55.693 16.4491 -0.840633 56.0563 1.28372 -0.735214 1.72804 -7.63677 2.03217e-16 0.0 3.88251e-19 1.29302 -15.5985 -1.73542 0.243845 35.4636 -0.642693 -3.71335 -22.6387 -8.47036
